# xmcd
#
# Track frame offsets: 
#        150
#        14960
#        29185
#        40369
#        58101
#        72300
#        85758
#        100014
#        114673
#        128806
#        144981
#        157018
#        169363
#        181544
#        195704
#
# Disc length: 2825 seconds
#
# Revision: 0
# Processed by: cddbd v1.5.2PL0 Copyright (c) Steve Scherf et al.
# Submitted via: ExactAudioCopyFreeDBPlugin 1.0
#
DISCID=d90b070f
DTITLE=Blues and the city - CD3
DYEAR=2015
DGENRE=Blues
TTITLE0=B.B. King - The Woman I Love
TTITLE1=T-Bone Walker - Blue Mood
TTITLE2=Ray Charles and The Maxim Trio - Sentimental Blues
TTITLE3=Pink Anderson - Weeping Willow Blues
TTITLE4=Muddy Waters - Mannish Boy
TTITLE5=Buster Brown - Fannie Mae
TTITLE6=Otis Rush - I Can't Quit You Baby
TTITLE7=Lonnie Johnson - Big Leg Woman
TTITLE8=Andre Williams - Bacon Fat
TTITLE9=John Lee Hooker - Thelma
TTITLE10=Lightnin’ Hopkins - Lightnin's Stomp
TTITLE11=Floyd Dixon - Moonshine
TTITLE12=Bobby Bland - Don't Want No Woman
TTITLE13=Freddy King - Have You Ever Loved A Woman
TTITLE14=Lonnie Johnson - Blues Round My Door
EXTD=
EXTT0=
EXTT1=
EXTT2=
EXTT3=
EXTT4=
EXTT5=
EXTT6=
EXTT7=
EXTT8=
EXTT9=
EXTT10=
EXTT11=
EXTT12=
EXTT13=
EXTT14=
PLAYORDER=
